<svg xmlns="http://www.w3.org/2000/svg" viewBox="0 0 20 20"><defs><style>.cls-1{fill:#bc0b1c;}.cls-2{fill:#878288;}</style></defs><g id="Object"><path class="cls-1" d="M19.06,10.19a9.42,9.42,0,1,1-3.88-7.63L13.76,4.22a7.16,7.16,0,0,0-4.13-1.3,7.24,7.24,0,1,0,7,5.21L18,5.92A9.17,9.17,0,0,1,19.06,10.19Z"/><path class="cls-2" d="M19.74.81c0,.08-1.1,1.75-2.46,3.9L16,6.7l-4.58,7.22s-1.54,2.3-3.14,0L4.82,9.05A1.06,1.06,0,0,1,5,7.46S6.4,6.08,7,6.77l2.94,3.67L14.6,4.92,16,3.27l.3-.35S18.72-.28,19.74.51A.23.23,0,0,1,19.74.81Z"/></g></svg>